<svg xmlns="http://www.w3.org/2000/svg" xmlns:xlink="http://www.w3.org/1999/xlink" height="80" width="120" version="1.1" id="Layer_1" x="0px" y="0px" viewBox="0 0 850.4 626" style="enable-background:new 0 0 850.4 626;" xml:space="preserve">
<style xmlns="http://www.w3.org/2000/svg" type="text/css">
	.st0{fill:#121212;}
	.st1{fill:#0EB4BA;}
svg {width:120px; height:80px;}
</style>
<path class="st0" d="M22.7,482.7h18.9c8.7,0,7.5-3.9,12-25.4H56v27.8H9v-2.4h5.7v-71.5H9v-2.4h21.9v2.4h-8.2V482.7z"></path>
<path class="st0" d="M68.3,485.1v-2.4H74v-71.5h-5.7v-2.4h49.4v23.7h-2.4c-4.4-16.9-4.4-21.3-9.5-21.3H81.9V444h9.3  c4.6,0,7.1-3.5,8.2-15h2.4v32.4h-2.4c-1.1-11.5-3.5-15-8.2-15h-9.3v36.2h23c8.7,0,8.4-6.4,12-25.4h2.4v27.8H68.3z"></path>
<path class="st0" d="M150.2,485.1h-16.3v-2.4h5.7v-71.5h-5.7v-2.4h15.3l20.6,65.1h0.2l21.2-65.1h14.8v2.4h-5.7v71.5h5.7v2.4h-21.9  v-2.4h8.2v-69h-0.2l-22.8,71.4h-3.2l-23.1-72.6h-0.3v70.2h7.5V485.1z"></path>
<path class="st0" d="M224.3,411.1h-5.7v-2.4h21v2.4h-7.3v56.1c0,8.8,4.2,16.3,15.3,16.3c11.7,0,18.2-6.2,18.2-22v-50.4h-8.6v-2.4  h17.4v2.4h-5.7v50.1c0,17.1-7,25.6-22.7,25.6c-12.4,0-21.6-6.6-21.9-19.9V411.1z"></path>
<path class="st0" d="M305.5,485.1h-19.4v-2.4h5.7v-71.5h-5.7v-2.4h26.8c15.5,0,22.8,7.4,22.8,18.3c0,12.1-11.6,18.3-25.2,18.3h-1.1  l27.5,37.3h5.2v2.4h-12.9l-29.1-41.5h3.8c18.5,0,23.9-7.3,23.9-16.6c0-9.9-5.5-15.9-16.7-15.9h-11.4v71.5h5.7V485.1z"></path>
<path class="st0" d="M367.7,485.1h-19.4v-2.4h5.7v-71.5h-5.7v-2.4h19.4v2.4H362v71.5h5.7V485.1z"></path>
<path class="st0" d="M374.4,485.1v-2.4h5.2l23-74.8h4l23.2,74.8h4.7v2.4h-19.2v-2.4h6.8l-8.5-27.8h-22.3l-8.5,27.8h8.5v2.4H374.4z   M392,452.4h20.9l-10.4-33.5h-0.2L392,452.4z"></path>
<path class="st0" d="M473.3,457.3c3.2,18,6,27.1,12.7,27.1c6.4,0,9-3.5,9-11.4v-61.9h-8.4v-2.4h22.1v2.4H503V468  c0,6.1-0.6,9.9-4.5,14.1c-3,3.1-7.4,4.7-13.6,4.7c-4.5,0-10.5-2-14-4.5v-25H473.3z"></path>
<path class="st0" d="M522,485.1v-2.4h5.7v-71.5H522v-2.4h49.4v23.7H569c-4.4-16.9-4.4-21.3-9.5-21.3h-23.8V444h9.3  c4.6,0,7.1-3.5,8.2-15h2.4v32.4h-2.4c-1.1-11.5-3.5-15-8.2-15h-9.3v36.2h23c8.7,0,8.4-6.4,12-25.4h2.4v27.8H522z"></path>
<path class="st0" d="M582.1,408.7h19.4v2.4h-7.8l16.3,63.3h0.2l12.1-45.1l-4.6-18.2H611v-2.4h23v2.4h-9l16.6,64h0.2l17.3-64H653  v-2.4h13.5v2.4H662l-20.3,73.9h-4.9l-13-50.3h-0.2l-13.7,50.3h-4.3l-19.1-73.9h-4.4V408.7z"></path>
<path class="st0" d="M673.3,485.1v-2.4h5.7v-71.5h-5.7v-2.4h49.4v23.7h-2.4c-4.4-16.9-4.4-21.3-9.5-21.3H687V444h9.3  c4.6,0,7.1-3.5,8.2-15h2.4v32.4h-2.4c-1.1-11.5-3.5-15-8.2-15H687v36.2h23c8.7,0,8.4-6.4,12-25.4h2.4v27.8H673.3z"></path>
<path class="st0" d="M752.4,482.7h18.9c8.7,0,7.5-3.9,12-25.4h2.4v27.8h-47v-2.4h5.7v-71.5h-5.7v-2.4h21.9v2.4h-8.2V482.7z"></path>
<path class="st0" d="M835.8,432.6l-3.5-12.9c-2.2-7.9-5.2-10.3-12.7-10.3c-9,0-15.8,5.3-15.8,14.8c0,8.1,3.9,10.3,17.1,16.6  c17.1,8.2,21.1,11.8,21.1,23.5c0,12.3-9,22.6-24.9,22.6c-6.6,0-13.1-2.1-18.3-6.7v-23.4h2.4c5.4,19.5,5.2,27.7,16,27.7  c11,0,18.2-8.2,18.2-19.3c0-9.7-4.9-11.8-17.9-17.9c-12.6-5.8-19.6-10-19.6-20.4c0-9,5.5-19.9,22.2-19.9c7.7,0,13.2,1.9,18.2,4.4  v21.2H835.8z"></path>
<g>
	<path class="st0" d="M137.4,558.2h2.9v23h14.5v2.7h-17.4V558.2z"></path>
	<path class="st0" d="M253,584.4c-7.8,0-13.1-6.1-13.1-13.3c0-7.1,5.3-13.3,13.2-13.3c7.8,0,13.1,6.1,13.1,13.3   C266.2,578.1,260.9,584.4,253,584.4z M253,560.4c-5.9,0-10.1,4.7-10.1,10.6s4.3,10.7,10.1,10.7s10.1-4.7,10.1-10.6   S258.9,560.4,253,560.4z"></path>
	<path class="st0" d="M373.9,558.2h2.8v25.7h-2.3l-16.6-21.1v21.1H355v-25.7h2.7l16.2,20.6V558.2z"></path>
	<path class="st0" d="M475.7,583.9h-8.9v-25.7h8.9c8.1,0,13.7,5.5,13.7,12.8C489.4,578.3,483.8,583.9,475.7,583.9z M475.7,560.9h-6   v20.4h6c6.5,0,10.7-4.4,10.7-10.1C486.4,565.4,482.2,560.9,475.7,560.9z"></path>
	<path class="st0" d="M589.9,584.4c-7.8,0-13.1-6.1-13.1-13.3c0-7.1,5.3-13.3,13.2-13.3s13.1,6.1,13.1,13.3   C603.1,578.1,597.8,584.4,589.9,584.4z M589.9,560.4c-5.9,0-10.1,4.7-10.1,10.6s4.3,10.7,10.1,10.7s10.1-4.7,10.1-10.6   S595.8,560.4,589.9,560.4z"></path>
	<path class="st0" d="M710.8,558.2h2.8v25.7h-2.3l-16.6-21.1v21.1h-2.8v-25.7h2.7l16.2,20.6V558.2z"></path>
</g>
</svg>
